<svg version="1" xmlns="http://www.w3.org/2000/svg" width="346.667" height="346.667" viewBox="0 0 260.000000 260.000000"><path d="M106.9 2.6C60 11.1 20.8 45.5 6.6 90.9c-4.7 14.8-5.9 24.7-5.3 43.6.4 13.8.9 18.8 3 26.5 5.2 19.8 12.5 34.6 24.6 50 8.2 10.4 17 18.4 29.2 26.5C80.2 252.4 102.4 259 130 259c27.6 0 49.8-6.6 71.9-21.5 27.5-18.4 45.1-43.4 53.8-76.5 3.4-12.7 4.3-38.8 1.9-52.6-4.6-26.9-17.1-50.9-36.1-69.9-18.8-18.9-43-31.4-69.2-36-10.6-1.9-35-1.8-45.4.1zm74 65.1l2.3.6-.6 13.6c-.4 7.5-.9 17-1.2 21.1l-.6 7.5h-11.1c-10.3 0-11.7.2-17.1 2.9-7.5 3.7-13.1 9.3-16.5 16.5-2.6 5.6-2.6 5.7-2.9 33.8l-.3 28.3H84.2V71h46.7l.3 11.2.3 11.3 3.9-5.8c6.4-9.5 15.6-16.4 25.6-19.1 5.8-1.5 15.8-2 19.9-.9z"/></svg>